<svg xmlns="http://www.w3.org/2000/svg" version="1.1" xmlns:xlink="http://www.w3.org/1999/xlink" xmlns:svgjs="http://svgjs.dev/svgjs" width="1000" height="623" viewBox="0 0 1000 623"><g transform="matrix(1,0,0,1,-0.6060606060606233,0.2522267206477409)"><svg viewBox="0 0 396 247" data-background-color="#ffffff" preserveAspectRatio="xMidYMid meet" height="623" width="1000" xmlns="http://www.w3.org/2000/svg" xmlns:xlink="http://www.w3.org/1999/xlink"><g id="tight-bounds" transform="matrix(1,0,0,1,0.2400000000000091,-0.09999999999999432)"><svg viewBox="0 0 395.52 247.2" height="247.2" width="395.52"><g><svg></svg></g><g><svg viewBox="0 0 395.52 247.2" height="247.2" width="395.52"><mask id="c49b19f3-b0ba-482f-84fc-2c44cf780d21"><rect width="640" height="400" fill="white"></rect><g transform="matrix(1,0,0,1,121.94685,37.08)"><svg viewBox="0 0 151.6263 173.04" height="173.04" width="151.6263"><g><svg viewBox="0 0 151.6263 173.04" height="173.04" width="151.6263"><g><svg viewBox="0 0 151.6263 173.04" height="173.04" width="151.6263"><g><svg viewBox="0 0 151.6263 173.04" height="173.04" width="151.6263"><g id="SvgjsG1946"><svg viewBox="0 0 151.6263 173.04" height="173.04" width="151.6263" id="SvgjsSvg1945"><g><svg viewBox="0 0 151.6263 173.04" height="173.04" width="151.6263"><g transform="matrix(1,0,0,1,0,0)"><svg width="151.6263" viewBox="-1.1500000953674316 -36.29999923706055 36.04999923706055 41" height="173.04" data-palette-color="#8b3c7f"><path d="M7.15-27Q7.15-28.6 6.78-29.15 6.4-29.7 5.3-29.7L5.3-29.7Q4.8-29.7 4.3-29.65 3.8-29.6 3.6-29.6L3.6-29.6 3.5-29.8 3.85-32Q4.45-31.95 6.1-31.9 7.75-31.85 9.4-31.85L9.4-31.85Q10.75-31.85 12.48-32.02 14.2-32.2 14.75-32.3L14.75-32.3 14.55-30.05Q12.7-29.75 12-29.13 11.3-28.5 11.25-27.05L11.25-27.05 10.65-5.6Q10.6-3.6 11.05-2.9 11.5-2.2 12.85-2.2L12.85-2.2Q13.6-2.2 14.25-2.25 14.9-2.3 15.1-2.35L15.1-2.35 15.2-2.15 14.75 0.15Q14.1 0.1 12.3 0.05 10.5 0 8.6 0L8.6 0 2.85 0.05 3.35-2.2Q4.95-2.35 5.73-2.7 6.5-3.05 6.8-3.8 7.1-4.55 7.1-6L7.1-6 7.15-27ZM12.15-16.45L21.1-25.75Q22.65-27.3 22.65-28.35L22.65-28.35Q22.65-29.65 19.5-29.85L19.5-29.85 19.4-30.05 19.75-32.2Q20.35-32.15 22.23-32 24.1-31.85 25.25-31.85L25.25-31.85Q26.45-31.85 27.93-31.93 29.4-32 29.85-32.05L29.85-32.05 30.05-31.7 29.7-29.65Q28.4-29.4 27.3-28.6 26.2-27.8 23.95-25.45L23.95-25.45 15.9-17 24.3-6.05Q26.1-3.7 27.53-2.75 28.95-1.8 30.7-1.8L30.7-1.8 30.9-1.6 30.6 0.1Q30.05 0.2 28.43 0.45 26.8 0.7 26.45 0.7L26.45 0.7Q25.25 0.7 23.8-0.43 22.35-1.55 20.85-3.6L20.85-3.6 12.1-15.75 12.15-16.45Z" opacity="1" transform="matrix(1,0,0,1,0,0)" fill="black" class="wordmark-text-0" id="SvgjsPath1944" stroke-width="7" stroke="black" stroke-linejoin="round"></path></svg></g></svg></g></svg></g></svg></g><g></g></svg></g></svg></g></svg></g></mask><g transform="matrix(1,0,0,1,121.94685,37.08)"><svg viewBox="0 0 151.6263 173.04" height="173.04" width="151.6263"><g><svg viewBox="0 0 151.6263 173.04" height="173.04" width="151.6263"><g><svg viewBox="0 0 151.6263 173.04" height="173.04" width="151.6263"><g><svg viewBox="0 0 151.6263 173.04" height="173.04" width="151.6263"><g id="textblocktransform"><svg viewBox="0 0 151.6263 173.04" height="173.04" width="151.6263" id="textblock"><g><svg viewBox="0 0 151.6263 173.04" height="173.04" width="151.6263"><g transform="matrix(1,0,0,1,0,0)"><svg width="151.6263" viewBox="-1.1500000953674316 -36.29999923706055 36.04999923706055 41" height="173.04" data-palette-color="#8b3c7f"><path d="M7.15-27Q7.15-28.6 6.78-29.15 6.4-29.7 5.3-29.7L5.3-29.7Q4.8-29.7 4.3-29.65 3.8-29.6 3.6-29.6L3.6-29.6 3.5-29.8 3.85-32Q4.45-31.95 6.1-31.9 7.75-31.85 9.4-31.85L9.4-31.85Q10.75-31.85 12.48-32.02 14.2-32.2 14.75-32.3L14.75-32.3 14.55-30.05Q12.7-29.75 12-29.13 11.3-28.5 11.25-27.05L11.25-27.05 10.65-5.6Q10.6-3.6 11.05-2.9 11.5-2.2 12.85-2.2L12.85-2.2Q13.6-2.2 14.25-2.25 14.9-2.3 15.1-2.35L15.1-2.35 15.2-2.15 14.75 0.15Q14.1 0.1 12.3 0.05 10.5 0 8.6 0L8.6 0 2.85 0.05 3.35-2.2Q4.95-2.35 5.73-2.7 6.5-3.05 6.8-3.8 7.1-4.55 7.1-6L7.1-6 7.15-27ZM12.15-16.45L21.1-25.75Q22.65-27.3 22.65-28.35L22.65-28.35Q22.65-29.65 19.5-29.85L19.5-29.85 19.4-30.05 19.75-32.2Q20.35-32.15 22.23-32 24.1-31.85 25.25-31.85L25.25-31.85Q26.45-31.85 27.93-31.93 29.4-32 29.85-32.05L29.85-32.05 30.05-31.7 29.7-29.65Q28.4-29.4 27.3-28.6 26.2-27.8 23.95-25.45L23.95-25.45 15.9-17 24.3-6.05Q26.1-3.7 27.53-2.75 28.95-1.8 30.7-1.8L30.7-1.8 30.9-1.6 30.6 0.1Q30.05 0.2 28.43 0.45 26.8 0.7 26.45 0.7L26.45 0.7Q25.25 0.7 23.8-0.43 22.35-1.55 20.85-3.6L20.85-3.6 12.1-15.75 12.15-16.45Z" opacity="1" transform="matrix(1,0,0,1,0,0)" fill="#8b3c7f" class="wordmark-text-0" data-fill-palette-color="primary" id="text-0"></path></svg></g></svg></g></svg></g></svg></g><g></g></svg></g></svg></g></svg></g><g mask="url(#c49b19f3-b0ba-482f-84fc-2c44cf780d21)"><g transform="matrix(1.946031746031746, 0, 0, 1.946031746031746, 75.16, 1)"><svg xmlns="http://www.w3.org/2000/svg" xmlns:xlink="http://www.w3.org/1999/xlink" version="1.1" x="0" y="0" viewBox="1 1 126 126" style="enable-background:new 0 0 128 128;" xml:space="preserve" height="126" width="126" class="icon-none" data-fill-palette-color="accent" id="none"><g fill="#8b3c7f" data-fill-palette-color="accent"><path d="M110.937 52.703c-7.691-4.44-16.653-5.62-25.231-3.321-8.267 2.215-15.218 7.411-19.687 14.668 9.403 17.409 3.288 39.323-13.954 49.278-5.771 3.331-12.084 4.915-18.313 4.915-0.632 0-1.264-0.028-1.894-0.062C41.271 123.777 52.257 127 64 127c31.814 0 58.104-23.586 62.378-54.223C124.154 64.602 118.837 57.265 110.937 52.703z" fill="#8b3c7f" data-fill-palette-color="accent"></path><path d="M64 1c-8.339 0-16.291 1.635-23.575 4.577C34.448 11.591 30.749 19.872 30.749 29c0 18.01 14.396 32.711 32.285 33.226 4.938-8.026 12.624-13.774 21.766-16.224 9.482-2.54 19.386-1.237 27.887 3.671 6.348 3.666 11.181 8.957 14.295 15.043C126.983 64.476 127 64.24 127 64 127 29.206 98.795 1 64 1z" fill="#8b3c7f" data-fill-palette-color="accent"></path><path d="M50.314 110.297c15.598-9.006 21.13-28.825 12.632-44.574C43.168 65.162 27.249 48.91 27.249 29c0-7.337 2.17-14.175 5.891-19.918C13.961 19.882 1 40.421 1 64c0 20.167 9.486 38.105 24.228 49.636C33.414 115.793 42.419 114.854 50.314 110.297z" fill="#8b3c7f" data-fill-palette-color="accent"></path></g></svg></g></g></svg></g><defs></defs></svg><rect width="395.52" height="247.2" fill="none" stroke="none" visibility="hidden"></rect></g></svg></g></svg>